<svg width="1600" height="830" xmlns="http://www.w3.org/2000/svg" xmlns:xlink="http://www.w3.org/1999/xlink"><defs><linearGradient x1="0%" y1="36.545%" x2="100%" y2="63.455%" id="b"><stop stop-color="#526ED0" offset="0%"/><stop stop-color="#484CB0" offset="100%"/></linearGradient><path id="a" d="M0 0h1600v697L0 830z"/><linearGradient x1="19.045%" y1="0%" x2="80.484%" y2="99.239%" id="f"><stop stop-color="#2E49A8" offset="0%"/><stop stop-color="#2C3097" offset="100%"/></linearGradient><path d="M819.107 2172v-32.495c0-30.44 20.112-60.493 47.024-76.987 14.268-4.005 28.405-8.351 42.437-12.905.114 0 .218-.02.331-.02h-.274C1373.083 1899.039 1709 1462.456 1709 947.219c0-391.42-193.881-737.476-490.698-947.218C542.942 13.303 0 509.442 0 1119.589 0 1603.268 341.202 2015.328 819.107 2172z" id="e"/><filter x="-1%" y="-.8%" width="102.9%" height="102.3%" filterUnits="objectBoundingBox" id="d"><feOffset dx="7" dy="7" in="SourceAlpha" result="shadowOffsetOuter1"/><feGaussianBlur stdDeviation="7" in="shadowOffsetOuter1" result="shadowBlurOuter1"/><feColorMatrix values="0 0 0 0 0.266666667 0 0 0 0 0.28627451 0 0 0 0 0.305882353 0 0 0 0.1 0" in="shadowBlurOuter1"/></filter><linearGradient x1="18.983%" y1="0%" x2="80.544%" y2="99.239%" id="i"><stop stop-color="#2E49A8" offset="0%"/><stop stop-color="#2C3097" offset="100%"/></linearGradient><path d="M1691.751 1949.668v-21.978c0-20.588 13.616-40.913 31.835-52.069 9.66-2.709 19.23-5.648 28.73-8.728.077 0 .148-.013.225-.013h-.186c314.44-101.826 541.857-397.103 541.857-745.575 0-264.731-131.258-498.781-332.205-640.637-457.221 8.997-824.795 344.553-824.795 757.217 0 327.129 230.996 605.82 554.539 711.783z" id="h"/><filter x="-1.3%" y="-1%" width="103.6%" height="102.9%" filterUnits="objectBoundingBox" id="g"><feOffset dx="6" dy="6" in="SourceAlpha" result="shadowOffsetOuter1"/><feGaussianBlur stdDeviation="6" in="shadowOffsetOuter1" result="shadowBlurOuter1"/><feColorMatrix values="0 0 0 0 0.266666667 0 0 0 0 0.28627451 0 0 0 0 0.305882353 0 0 0 0.1 0" in="shadowBlurOuter1"/></filter></defs><g fill="none" fill-rule="evenodd"><mask id="c" fill="#fff"><use xlink:href="#a"/></mask><use fill="url(#b)" xlink:href="#a"/><g mask="url(#c)" fill-rule="nonzero"><g opacity=".2" transform="rotate(180 617 472.5)"><use fill="#000" filter="url(#d)" xlink:href="#e"/><use fill="url(#f)" xlink:href="#e"/></g><g opacity=".3" transform="rotate(-25 -1289.107 1672.961)"><use fill="#000" filter="url(#g)" xlink:href="#h"/><use fill="url(#i)" xlink:href="#h"/></g></g></g></svg>