<?xml version="1.0" encoding="UTF-8"?>
<svg width="81px" height="80px" viewBox="0 0 81 80" version="1.1" xmlns="http://www.w3.org/2000/svg" xmlns:xlink="http://www.w3.org/1999/xlink">
    <!-- Generator: Sketch 52.5 (67469) - http://www.bohemiancoding.com/sketch -->
    <title>leapfrog@1x</title>
    <desc>Created with Sketch.</desc>
    <g id="Page-1" stroke="none" stroke-width="1" fill="none" fill-rule="evenodd">
        <g id="01-HF-Homepage" transform="translate(-629.000000, -1089.000000)">
            <g id="brands" transform="translate(318.000000, 1027.000000)">
                <g id="logos" transform="translate(0.000000, 62.000000)">
                    <g id="leapfrog" transform="translate(311.000000, 0.000000)">
                        <g>
                            <rect id="Rectangle" fill-rule="nonzero" x="0" y="0" width="81" height="80"></rect>
                            <g id="leapfrog-seeklogo.com" transform="translate(20.000000, 24.000000)" fill-rule="nonzero">
                                <path d="M33.6046168,6.0211792 C29.8414616,3.29283733 24.7227612,1.52850959 19.1994205,1.07378594 C13.9593281,0.63725124 8.57761149,2.16512269 5.46188083,4.92984245 C2.50800632,7.58542854 0.848980903,12.7147113 1.01083704,18.6443076 C1.11199713,22.2639078 1.98197387,28.8119283 6.63533783,32.0131828 C12.0979825,35.7782946 19.8063811,35.9965619 27.2719954,32.5952291 C34.8792339,29.1393293 40.1193264,22.7913873 39.9979343,17.1891919 C39.8967742,12.8602228 37.6914843,8.98597737 33.6046168,6.0211792" id="path3682" fill="#FFFFFF"></path>
                                <path d="M25.9360573,31.8255207 C19.2751654,33.6356389 6.33343238,33.5813354 2.75295293,23.2274588 C-0.347462234,14.2854745 4.07312971,5.1805795 14.074469,2.46540207 C23.5157332,-0.104965894 33.9971367,5.54260316 36.6174876,13.1994035 C39.1178224,20.4398766 35.6173537,29.2008491 25.9360573,31.8255207 M34.2971769,5.30728778 C30.3366466,2.42919971 24.9559261,0.564777872 19.1551493,0.0760459346 C13.63441,-0.376483637 7.97365202,1.21642045 4.71321543,4.16691326 C1.59279758,6.9725966 -0.167438127,12.4029515 0.012585979,18.6840619 C0.112599371,22.5034115 1.03272258,29.4361645 5.93337881,32.8391869 C11.6741475,36.8214471 19.7752323,37.0567625 27.6162823,33.4546271 C35.6173537,29.7981882 41.1180903,23.0826493 40.9980742,17.1454614 C40.9180635,12.5477609 38.5977528,8.45689359 34.2971769,5.30728778" id="path3684" fill="#036333"></path>
                                <path d="M31.3159329,21.4805409 C31.0948326,21.6578866 30.9139324,21.7642941 30.592332,21.8529669 C29.5873308,22.1367201 28.8235299,21.640152 28.3009292,20.1504479 C27.7582286,18.60754 28.3210293,17.5434656 29.0848302,17.3306507 C29.3863305,17.2419778 29.6476309,17.2419778 29.808431,17.2597124 C29.9290312,17.5079964 31.2958328,21.4096026 31.3159329,21.4805409 Z M28.7029297,15.8586811 C27.0346277,16.31978 25.2457256,17.8981571 26.2909268,20.8775654 C27.1351278,23.2362637 29.2054303,23.8747083 30.8335323,23.4136094 C31.2355328,23.3072019 31.5973332,23.1298562 31.8586335,22.970245 C32.0797338,23.5732205 32.0194337,24.4422146 30.8938323,24.7437024 C30.0697314,24.9742518 29.2456304,24.9565173 28.3612293,24.7082332 L28.2607292,24.6727641 L28.5019295,26.215672 L28.5421295,26.2334066 C29.3863305,26.4816906 30.5119319,26.463956 31.5370331,26.1802028 C33.5470355,25.6304311 34.5118367,24.2471343 33.7279358,22.0125781 C33.7279358,22.0125781 31.5772332,15.8586811 31.5370331,15.7522737 C30.9742324,15.6103971 29.9089312,15.5217242 28.7029297,15.8586811 Z M23.0548229,23.9988503 C22.8136226,24.0697886 22.5523223,24.052054 22.331222,23.927912 C21.8086214,23.679628 21.3463209,23.0411833 21.0247205,22.101251 C20.6830201,21.1613186 20.66292,20.3809973 20.9242204,19.9198984 C21.0448205,19.7070835 21.2458207,19.565207 21.487021,19.4942687 C21.7483213,19.4233304 21.9895216,19.4410649 22.250822,19.565207 C22.7734226,19.813491 23.2558232,20.4696702 23.5774235,21.391868 C24.0397241,22.8106339 23.8588239,23.7860354 23.0548229,23.9988503 Z M20.9242204,17.9690954 C18.8941179,18.5188671 18.0901169,20.3277936 18.9142179,22.6687573 C19.3765185,23.9988503 20.1805195,24.9210481 21.1453206,25.3644125 C21.8689215,25.7013694 22.7131225,25.7545731 23.5774235,25.5240236 C24.4417246,25.2934742 25.1251254,24.8146407 25.5070259,24.1407269 C26.0296265,23.2717328 26.0698265,22.1189855 25.627626,20.8243617 C24.803525,18.5011326 22.9945228,17.4193236 20.9242204,17.9690954 Z M17.326316,18.9622315 L17.266016,18.979966 C16.5424151,19.2282501 15.9796144,19.8312256 15.6982141,20.6292814 C15.597714,20.4342011 15.1957135,19.7070835 15.1957135,19.7070835 L13.5274115,20.1681825 L16.0801145,27.4393575 L18.110217,26.8895858 C18.110217,26.8895858 16.462015,22.225393 16.462015,22.1721892 C16.7434153,21.4805409 17.4469162,20.8775654 18.2509171,20.5938122 L17.326316,18.9622315 Z M10.3918077,29 L12.5023102,28.4324937 C12.5023102,28.4324937 11.3365088,25.0806593 11.2762088,24.9742518 C11.3968089,24.9387827 13.9294119,24.2471343 13.9294119,24.2471343 L13.0852109,22.721961 C13.0852109,22.721961 10.8340082,23.3426711 10.7134081,23.3781402 C10.673208,23.2717328 10.0702073,21.5337446 10.0300073,21.4273372 C10.1506074,21.391868 13.0651109,20.5938122 13.0651109,20.5938122 L12.5023102,18.9977006 L7.35670404,20.3987319 L10.3918077,29 Z M25.9693264,7.66530822 C26.4919271,7.52343163 27.5773284,7.54116621 28.2607292,9.45650013 C28.7833298,10.9462043 28.5220295,11.8861367 27.5170283,12.1698899 C27.2155279,12.2585627 26.9743276,12.2585627 26.6929273,12.2230936 C26.6728273,12.1521553 25.2457256,8.09093798 25.2055255,8.00226511 C25.4266258,7.84265395 25.6879261,7.73624651 25.9693264,7.66530822 Z M27.2155279,13.6950632 C27.6175284,13.6950632 27.9793288,13.6418595 28.3411293,13.5531866 C29.768231,13.163026 31.2958328,11.5846489 30.3109316,8.7471172 C29.5672308,6.61896839 27.7984286,5.55489399 25.5070259,6.17560406 C23.8789239,6.61896839 23.0347229,7.36382047 22.8337227,7.57663535 C22.9141228,7.80718481 25.8688263,16.2133726 25.8688263,16.2133726 L27.7984286,15.3798476 C27.7984286,15.3798476 27.255728,13.8369398 27.2155279,13.6950632 Z M21.0649205,11.7442601 L21.7885214,13.783736 C21.6076212,13.9256126 21.3061208,14.0142855 21.0247205,14.1029584 C20.5021198,14.2448349 19.9192191,14.1384275 19.7383189,13.6063903 C19.4770186,12.8615382 19.9594192,12.2940319 21.0649205,11.7442601 Z M21.466921,15.5749279 C22.9744228,15.1670328 23.8990239,14.4576498 24.1402242,14.1738967 C24.0799242,14.0142855 22.5322223,9.58064215 22.5322223,9.58064215 C21.9694216,7.96679597 20.9242204,7.43475877 19.1353182,7.93132682 C18.0097169,8.25054914 17.266016,8.7471172 16.6228152,9.24368525 L16.5826151,9.2791544 L17.3866161,10.7156548 L17.4670162,10.6447165 C17.9494168,10.1126793 18.6730176,9.68704959 19.2157183,9.545173 C19.5574187,9.45650013 19.818719,9.45650013 20.0197193,9.545173 C20.2408195,9.65158044 20.4016197,9.86439532 20.5222199,10.2013522 C20.5222199,10.2013522 20.60262,10.3964325 20.62272,10.4851054 C18.130317,11.5846489 17.286116,12.8970074 17.7685166,14.2625695 C18.2911172,15.7700083 20.0599193,15.9650886 21.466921,15.5749279 Z M12.8641107,11.12355 C13.4671114,10.9462043 14.1103122,11.4959761 14.5123126,12.5423159 C14.3917125,12.577785 12.5224103,13.0920877 12.3817101,13.1275568 C12.1204098,12.0280133 12.30131,11.2831612 12.8641107,11.12355 Z M15.3163136,17.2597124 C16.2811148,16.9936938 17.2057159,16.4261875 17.7484165,15.8586811 C17.6077164,15.5926625 17.0449157,14.5817918 16.9645156,14.4576498 C16.4218149,15.0783599 15.7384141,15.5394588 15.0550133,15.7345391 C13.9093119,16.0537614 13.2058111,15.1670328 12.8038106,14.3512424 C12.9445108,14.3157732 16.9645156,13.2162297 16.9645156,13.2162297 L16.9444156,13.163026 L16.7635154,12.577785 C16.2811148,11.2299575 15.5173139,10.3077597 14.6128128,9.88212989 C13.969612,9.58064215 13.2259111,9.545173 12.4420102,9.75798788 C11.6380092,9.97080276 11.0551085,10.3964325 10.673208,11.0348772 C10.1506074,11.9038713 10.0702073,13.1275568 10.5325079,14.4221807 C11.3566088,16.8340827 13.145511,17.8626879 15.3163136,17.2597124 Z M8.52250544,17.1710396 C8.48230539,17.0468975 6.11050254,10.3254942 6.11050254,10.3254942 L4,10.8930006 L6.9949036,19.3701267 L12.0199096,17.9868299 L11.1556086,16.4261875 C11.1556086,16.443922 8.64310558,17.1355704 8.52250544,17.1710396 Z" id="path3686" fill="#036333"></path>
                                <path d="M33.8648527,15.6038021 L33.7253058,15.6554702 L33.829966,15.9654789 L33.9695128,15.9138108 C34.0916163,15.8793654 34.1439464,15.8104745 34.1090597,15.6899156 C34.074173,15.6038021 33.9869562,15.5693567 33.8648527,15.6038021 Z M34.4404835,16.4132692 L33.9695128,16.0688151 L33.8648527,16.1032605 L34.0043996,16.5338281 L33.829966,16.5854963 L33.4810988,15.5349113 L33.8125226,15.431575 C34.0392863,15.3626842 34.2137198,15.431575 34.2834933,15.6210248 C34.3358233,15.7760291 34.2834933,15.8965881 34.1613898,15.9827016 L34.6149171,16.309933 L34.4404835,16.4132692 Z M33.7253058,15.1560118 C33.2717785,15.2937934 33.0275715,15.724361 33.2020051,16.2582649 C33.3764387,16.7921687 33.829966,16.9816185 34.2834933,16.8438368 C34.7370206,16.7060552 34.9986709,16.2754876 34.806794,15.7415837 C34.6323604,15.1904572 34.1613898,15.0182301 33.7253058,15.1560118 Z M34.31838,16.9471731 C33.7601925,17.1194001 33.2543352,16.8610595 33.0624583,16.309933 C32.8705813,15.7415837 33.1322317,15.2249026 33.6904191,15.0526755 C34.2486066,14.8804485 34.7544639,15.138789 34.9463409,15.7071383 C35.1207744,16.2582649 34.8591241,16.774946 34.31838,16.9471731 Z" id="path3688" fill="#036333"></path>
                            </g>
                        </g>
                    </g>
                </g>
            </g>
        </g>
    </g>
</svg>