<?xml version="1.0" encoding="UTF-8"?>
<svg width="130px" height="80px" viewBox="0 0 130 80" version="1.1" xmlns="http://www.w3.org/2000/svg" xmlns:xlink="http://www.w3.org/1999/xlink">
    <!-- Generator: Sketch 52.5 (67469) - http://www.bohemiancoding.com/sketch -->
    <title>lowes@1x</title>
    <desc>Created with Sketch.</desc>
    <g id="Page-1" stroke="none" stroke-width="1" fill="none" fill-rule="evenodd">
        <g id="01-HF-Homepage" transform="translate(-1159.000000, -1089.000000)">
            <g id="brands" transform="translate(318.000000, 1027.000000)">
                <g id="logos" transform="translate(0.000000, 62.000000)">
                    <g id="lowes" transform="translate(841.000000, 0.000000)">
                        <g>
                            <rect id="Rectangle" fill-rule="nonzero" x="0" y="0" width="130" height="80"></rect>
                            <g id="Lowes_Companies_Logo" transform="translate(21.000000, 20.000000)" fill-rule="nonzero">
                                <polygon id="path5808" fill="#004990" points="44.0049305 0 21.2776782 9.63876007 7.10118781 9.63876007 7.10118781 13.5709055 0 13.5709055 0 40 88 40 88 13.5709055 80.9025101 13.5709055 80.9025101 9.63876007 66.7309502 9.63876007"></polygon>
                                <polygon id="path5812" fill="#FFFFFF" points="65.0008769 17 65 20.9954351 67.4826452 21 68 17.0011412 65.0010961 17.0002282"></polygon>
                                <path d="M80.0004968,19.9284995 C80.1455539,19.9284995 80.2767014,19.9174622 80.2767014,19.7381672 C80.2767014,19.5971803 80.147541,19.570997 80.0283159,19.570997 L79.79384,19.570997 L79.79384,19.9284995 L80.0004968,19.9284995 Z M79.79384,20.5750252 L79.6219573,20.5750252 L79.6219573,19.4229607 L80.0551416,19.4229607 C80.3224044,19.4229607 80.455539,19.5236657 80.455539,19.7512588 C80.455539,19.9577039 80.3293592,20.0473313 80.1624441,20.0684794 L80.4853453,20.5750252 L80.2925981,20.5750252 L79.9925484,20.0755287 L79.79384,20.0755287 L79.79384,20.5750252 Z M80.0024839,20.8328298 C80.4485842,20.8328298 80.8002981,20.4793555 80.8002981,19.9969789 C80.8002981,19.5236657 80.4485842,19.1671702 80.0024839,19.1671702 C79.5504223,19.1671702 79.1987084,19.5236657 79.1987084,19.9969789 C79.1987084,20.4793555 79.5504223,20.8328298 80.0024839,20.8328298 Z M79,19.9969789 C79,19.4229607 79.4590164,19 80.0024839,19 C80.5399901,19 81,19.4229607 81,19.9969789 C81,20.5750252 80.5399901,21 80.0024839,21 C79.4590164,21 79,20.5750252 79,19.9969789 Z" id="path5824" fill="#FFFFFF"></path>
                                <polygon id="path5828" fill="#FFFFFF" points="13.9256497 31.5381803 13.9256497 17 10 17 10 35 20 35 20 31.5381803"></polygon>
                                <polygon id="path5832" fill="#FFFFFF" points="54 35 64 35 64 31.4902541 58.2217072 31.4902541 58.2217072 29.2030595 64 29.2030595 64 25.8240809 58.2217072 25.8240809 58.2217072 23.5245497 64 23.5245497 64 20 54 20 54 20.0172712"></polygon>
                                <path d="M29.8303571,23.5245497 L26.1696429,23.5245497 L26.1696429,31.4754503 L29.8303571,31.4754503 L29.8303571,23.5245497 Z M34,33.0841352 C34,34.1413768 33.1135204,35 32.0191327,35 L23.9795918,35 C22.8864796,35 22,34.1413768 22,33.0841352 L22,21.9158648 C22,20.8573896 22.8864796,20 23.9795918,20 L32.0191327,20 C33.1135204,20 34,20.8573896 34,21.9158648 L34,33.0841352 Z" id="path5834" fill="#FFFFFF"></path>
                                <path d="M48.0815103,20 L48.0815103,31.4939551 L45.7201079,31.4939551 L45.7201079,20 L42.2798921,20 L42.2798921,31.4939551 L39.9184897,31.4939551 L39.9184897,20 L36,20 L36,33.0829016 C36,34.1413768 36.8330836,35 37.8615523,35 L42.4932574,35 C43.273599,35 44,34.4448557 44,33.6417469 C44,34.4448557 44.726401,35 45.5067426,35 L50.1396464,35 C51.1669164,35 52,34.1413768 52,33.0829016 L52,20 L48.0815103,20 Z" id="path5838" fill="#FFFFFF"></path>
                                <path d="M78.5838021,28.7868863 L78.5847902,28.7878634 L78.5600878,28.7365667 C78.5440806,28.7048115 78.5279746,28.6742289 78.5119674,28.6425714 L78.487265,28.5937174 C77.848707,27.3271757 76.418436,26.2694851 74.1161689,25.3583568 L74.0346509,25.3278719 C73.578891,25.1507759 72.1918492,24.6146025 72.037459,23.7425574 C71.9954648,23.4982871 72.0955591,23.1147826 72.3709418,22.8815045 C72.6611955,22.5896014 73.1058393,22.4393752 73.6925222,22.4393752 C74.6312147,22.4393752 75.69836,22.8192155 76.2516945,23.0451656 C77.4164144,23.5227141 78.4378601,23.9489658 78.4477411,23.9550726 L78.5490211,23.9965985 L78.5490211,20.7551312 L78.5157222,20.7343194 C78.49349,20.7196632 76.2912678,19.3468639 74.0668135,19.0317551 C73.8111433,19.0097708 73.5579433,19 73.3146243,19 C71.2667923,19 69.7154794,19.7352537 68.7051497,21.1862195 C67.856621,22.3782587 67.7627518,24.265247 68.4840629,25.6734655 C69.4116394,27.2648868 70.8987261,27.9293021 72.337643,28.5729544 C72.9305014,28.8367663 73.544357,29.1127918 74.1186886,29.4498849 L74.1246172,29.4537932 C74.7742912,29.8397403 75.1053039,30.4296532 74.9682054,30.9536131 C74.8261664,31.4971146 74.1974894,31.8622987 73.403306,31.8622987 C73.2946153,31.8622987 73.1846895,31.8564362 73.0772339,31.8415846 L73.0388957,31.8366992 C71.51105,31.6266267 68.4133646,30.4858842 68.3824865,30.4736707 L68.2836768,30.4370302 L68.2836768,33.9911635 L68.3343662,34.0082624 C68.3628234,34.0180333 71.3616497,35 74.0233372,35 L74.0243253,35 C75.4768285,35 76.5736167,34.7105397 77.2825766,34.1413898 C77.2998683,34.1291763 78.9265237,32.8357648 78.9981608,30.6361105 C79.0179227,30.0278774 78.878354,29.404988 78.5831599,28.7869841" id="path5842" fill="#FFFFFF"></path>
                            </g>
                        </g>
                    </g>
                </g>
            </g>
        </g>
    </g>
</svg>