<svg xmlns="http://www.w3.org/2000/svg" width="167" height="80" viewBox="0 0 167 80">
    <g fill="#FFF" fill-rule="evenodd">
        <path d="M152.253 6.435c-.6-1.35-1.04-2.684-1.559-4.4-.176-.587-.252-1.187-.284-1.802 1.042 1.06 1.996 2.087 2.487 3.322.718 1.815.837 3.398.352 5.117l-.996-2.237zm-.36 2.717c-.444 0-.969-.018-1.491-.153-1.206-.312-2.185-.713-2.91-1.194l-.05-.034c-.874-.582-1.78-1.184-2.5-1.854-.151-.14-.313-.279-.472-.414h.006c1.283 0 2.378.182 3.173.526.925.4 1.765.989 2.656 1.613l2.149 1.503c-.187.004-.375.007-.562.007zm5.307 8.856c-.213 0-.511-.078-.8-.154a11.241 11.241 0 0 0-.466-.114c-.806-.172-1.981-.468-2.878-1.048a11.725 11.725 0 0 1-2.623-2.307c-.272-.325-.54-.655-.806-.985l-.397-.488c-.046-.058-.11-.157-.19-.272a1.951 1.951 0 0 0-.08-.114c.994.048 2.191.232 3.128.861 1.828 1.23 5.04 4.275 5.04 4.275l-.346-3.147c-.215-1.056-.204-2.45.026-3.825.156-.914.4-1.835.73-2.736.087.23.175.458.263.685.5 1.287.974 2.503 1.042 3.809.13 2.452-.36 4.179-1.592 5.558l-.051.002zm3.11 10.656c-.749-.095-2.023-.673-4.064-2.684-1.32-1.301-2.208-2.888-3.108-4.576 1.184.404 2.316.99 3.343 1.736.767.554 3.86 5.179 3.86 5.179s.79-6.025 1.544-8.024a21.09 21.09 0 0 1 1.303-2.859c.125.607.222 1.21.301 1.727.202 1.288.213 2.437.037 3.513-.167 1.012-.468 2.486-1.17 3.591-.533.844-1.163 1.492-1.895 2.242a6.384 6.384 0 0 0-.15.155zm.358 11.312c-1.717-1.298-2.994-2.723-4.008-4.465-.826-1.423-1.325-2.986-1.816-4.638 1.26.707 2.577 1.615 3.474 2.677.712.845 1.527 2.25 1.745 3.482l.718 2.273s2.592-4.54 3.281-5.706c.185-.309.367-.615.54-.92l.068-.118c.366-.635.74-1.291 1.18-1.758.168-.179.352-.359.548-.543-.147 2.078-.349 4.04-1.356 5.77-.727 1.245-1.485 2.165-2.387 2.894-.39.313-.86.53-1.36.758-.207.094-.414.19-.627.294zm-2.032 11.789l-.364-.17c-1.277-1.494-1.984-3.74-2.412-5.362-.324-1.22-.443-2.418-.534-3.956-.04-.66-.108-1.314-.176-1.949.412.387.752.761.928.954.687.748 1.215 1.58 1.718 2.698.29.649.519 1.637.647 2.783.02.185.054.395.088.619.045.289.09 3.968.09 3.968s4.306-6.292 6.074-7.985a10.354 10.354 0 0 1 2.197-1.633c-.125.409-.227.816-.326 1.211-.114.446-.219.868-.35 1.276-.397 1.242-.876 2.544-1.688 3.657-1.41 1.935-3.778 3.889-5.875 3.889h-.017zm-4.885 11.32c-.238 0-.482-.01-.724-.026-1.243-1.899-1.237-4.581-1.234-6.963v-.175c0-.685.161-1.42.332-2.199.09-.42.187-.856.255-1.292.12-.743.205-1.484.273-2.214 1.859 2.36 3.034 5.7 1.845 8.78l-.923 3.354 2.787-2.145c.525-.53 1.124-1.046 1.706-1.547.34-.295.681-.589 1.013-.888l.239-.216c.786-.713 1.527-1.387 2.358-1.897a16.445 16.445 0 0 1 3.057-1.472c-.258.505-.488 1.02-.715 1.526-.253.561-.491 1.092-.755 1.59-.693 1.306-1.584 2.41-2.651 3.284-1.973 1.612-4.408 2.5-6.863 2.5zm-4.728 9.976c-1.896 0-3.704-.495-5.245-1.433a2.43 2.43 0 0 0-.015-.238c-.073-.625-.139-1.433-.002-2.134.332-1.709.72-3.511 1.464-5.098.13-.277.258-.56.383-.845.273-.61.53-1.187.832-1.71.15-.265.329-.53.516-.812.335-.508.684-1.033.951-1.636.012-.029.026-.059.037-.089.278 1.164.295 2.472.173 3.53-.147 1.28-.423 2.417-.846 3.48-.144.37-.352.747-.57 1.147-.338.617-2.052 4.077-2.052 4.077l2.622-.706c.313-.107.622-.21.931-.312 1.116-.368 2.27-.748 3.406-1.344 1.309-.685 2.49-1.288 3.718-1.732 1.351-.487 2.631-.778 3.815-.868-.676.69-1.272 1.435-1.856 2.167-1.269 1.585-2.467 3.083-4.295 3.804-1.265.499-2.6.752-3.967.752zm-8.16 6.706c-2.481 0-5.694-.816-7.462-2.634a19.23 19.23 0 0 0-.213-.997c-.196-.848-.34-1.46-.113-2.264.292-1.031.772-1.938 1.512-2.85 1.028-1.268 2.356-2.392 3.639-3.479l.244-.206c.187-.158.383-.317.585-.477.502-.404 1.064-.855 1.564-1.39.29 1.75.002 3.285-.855 4.58-.655.988-1.493 1.818-2.381 2.696l-.4.397a8.905 8.905 0 0 0-.71.836 11.04 11.04 0 0 1-.482.586l-2.31 2.52 3.36-.639c.585-.111 1.203-.147 1.856-.184.783-.045 1.595-.092 2.418-.275.477-.106 1.05-.158 1.749-.158.743 0 1.493.057 2.22.112l.155.011a13.44 13.44 0 0 1 4.048.966c-.656.28-1.394.608-2.155.948-.386.173-.783.351-.874.385-.306.118-.619.242-.93.367-1.409.565-2.74 1.098-4.1 1.143-.121.004-.24.006-.365.006zM13.746 8.672c-.486-1.719-.37-3.302.352-5.117.49-1.235 1.444-2.262 2.483-3.322-.028.615-.105 1.215-.284 1.801-.516 1.717-.96 3.051-1.558 4.4l-.993 2.238zm.791.473l2.152-1.503c.891-.624 1.731-1.214 2.654-1.613.794-.344 1.893-.526 3.173-.526h.005a13.16 13.16 0 0 0-.468.414c-.724.67-1.626 1.272-2.503 1.854l-.048.034c-.724.48-1.703.882-2.91 1.194-.522.135-1.047.153-1.49.153-.19 0-.377-.003-.565-.007zm-4.745 8.863l-.051-.002c-1.23-1.38-1.72-3.106-1.59-5.558.069-1.306.54-2.522 1.04-3.81.087-.226.178-.454.263-.684.33.901.576 1.822.73 2.736.232 1.375.24 2.77.028 3.825l-.35 3.147s3.214-3.044 5.044-4.275c.937-.63 2.132-.813 3.125-.861a6.629 6.629 0 0 0-.076.114c-.08.115-.145.214-.193.272l-.395.488c-.267.33-.533.66-.809.985a11.71 11.71 0 0 1-2.62 2.307c-.9.58-2.074.876-2.88 1.048-.148.032-.304.072-.463.114-.29.076-.587.154-.803.154zM6.684 28.664l-.15-.155c-.733-.75-1.363-1.398-1.9-2.242-.697-1.105-1.001-2.579-1.166-3.59-.178-1.077-.164-2.226.034-3.514.083-.516.176-1.12.304-1.727.457.817.891 1.773 1.303 2.86.755 1.998 1.544 8.023 1.544 8.023s3.094-4.625 3.86-5.179a12.729 12.729 0 0 1 3.34-1.736c-.9 1.688-1.785 3.275-3.107 4.576-2.041 2.01-3.313 2.59-4.062 2.684zm-.36 11.312c-.21-.105-.42-.2-.625-.294-.5-.229-.973-.445-1.36-.758-.902-.729-1.66-1.649-2.386-2.894-1.01-1.73-1.21-3.692-1.36-5.77.196.184.383.364.55.543.438.467.815 1.123 1.179 1.758l.068.118c.176.305.357.611.54.92.692 1.166 3.283 5.706 3.283 5.706l.715-2.273c.222-1.233 1.036-2.637 1.748-3.482.895-1.062 2.214-1.97 3.475-2.677-.492 1.652-.994 3.215-1.82 4.638-1.01 1.742-2.287 3.167-4.007 4.465zm2.035 11.789h-.017c-2.1 0-4.465-1.954-5.878-3.89-.812-1.112-1.292-2.414-1.686-3.656-.13-.408-.239-.83-.35-1.276-.102-.395-.204-.802-.326-1.211.752.41 1.49.957 2.197 1.633 1.765 1.693 6.074 7.985 6.074 7.985s.045-3.68.09-3.968c.035-.224.066-.434.089-.62.124-1.145.354-2.133.647-2.782.5-1.118 1.03-1.95 1.714-2.698.176-.193.52-.567.931-.954-.068.635-.14 1.29-.176 1.95-.09 1.537-.21 2.735-.534 3.955-.431 1.623-1.135 3.868-2.412 5.361l-.363.17zm4.884 11.32h-.003c-2.452 0-4.89-.888-6.86-2.5-1.067-.873-1.96-1.978-2.65-3.285-.265-.497-.503-1.028-.756-1.59-.227-.506-.456-1.02-.715-1.525 1 .353 2.05.855 3.054 1.472.835.51 1.575 1.184 2.362 1.897l.238.216c.33.3.67.593 1.013.888.58.5 1.178 1.017 1.706 1.547l2.784 2.145-.92-3.353c-1.188-3.08-.016-6.422 1.846-8.78.068.73.15 1.47.27 2.213.07.436.167.872.258 1.292.17.778.329 1.514.332 2.2v.174c.002 2.382.008 5.064-1.238 6.963-.241.017-.482.025-.72.025zm4.726 9.976c-1.365 0-2.702-.253-3.968-.752-1.828-.72-3.026-2.219-4.294-3.804-.585-.732-1.18-1.477-1.854-2.167 1.184.09 2.461.381 3.812.868 1.232.444 2.413 1.047 3.718 1.732 1.138.596 2.29.976 3.409 1.344.307.102.619.205.93.312l2.623.706s-1.717-3.46-2.052-4.077c-.218-.4-.425-.778-.573-1.148-.42-1.062-.695-2.2-.843-3.478-.122-1.06-.105-2.367.17-3.53.015.03.026.059.04.088.264.603.613 1.128.951 1.636.187.281.363.547.517.812.3.523.556 1.1.828 1.71.128.284.253.568.383.845.747 1.587 1.136 3.389 1.468 5.098.136.7.07 1.51-.003 2.134-.011.085-.014.165-.017.238-1.538.938-3.346 1.433-5.245 1.433zm8.16 6.706c-.122 0-.244-.002-.363-.006-1.36-.045-2.691-.578-4.102-1.143a50.61 50.61 0 0 0-.93-.367 36.355 36.355 0 0 1-.872-.385c-.76-.34-1.499-.668-2.154-.948a13.401 13.401 0 0 1 4.044-.966l.16-.011c.723-.055 1.475-.112 2.216-.112.7 0 1.274.052 1.751.158.823.183 1.635.23 2.418.275.653.037 1.272.073 1.856.184l3.358.638-2.307-2.52c-.16-.171-.315-.372-.483-.585-.224-.284-.454-.578-.712-.836l-.4-.397c-.886-.878-1.723-1.708-2.379-2.695-.86-1.296-1.144-2.831-.854-4.581.5.535 1.058.986 1.564 1.39.198.16.397.319.584.477l.244.206c1.283 1.087 2.612 2.21 3.639 3.478.738.913 1.22 1.82 1.51 2.851.227.803.085 1.416-.114 2.264-.07.314-.147.637-.21.997-1.768 1.818-4.98 2.634-7.464 2.634z"/>
        <g fill-rule="nonzero">
            <path d="M43.764 22.278h79.472a4.05 4.05 0 0 1 4.05 4.051v28.355a4.05 4.05 0 0 1-4.05 4.05H43.764a4.05 4.05 0 0 1-4.05-4.05V26.329a4.05 4.05 0 0 1 4.05-4.05zm21.333 17.21h-3.894v4.837c0 .491-.208.707-.636.707-.417 0-.637-.204-.637-.707V31.802c0-.419.208-.658.637-.658.428 0 .636.251.636.658v4.382h3.894V31.97c0-2.071-1.053-3.556-4.36-3.556-3.293 0-4.897 1.245-4.897 3.556v12.188c0 2.358 1.604 3.592 4.898 3.592 3.294 0 4.36-1.485 4.36-3.592v-4.67zm-10.102-7.446c0-2.31-1.139-3.556-3.845-3.556h-5.241v19.18h4.102v-7.4h1.139c2.706 0 3.845-1.244 3.845-3.555v-4.67zm-4.996 5.46v-6.238c.93 0 1.31.251 1.31 1.077v4.095c0 .826-.38 1.065-1.31 1.065zM46.827 51.21c.588 0 .93-.276.93-1.066 0-.766-.354-1.054-.99-1.054h-.834v3.425h.662V51.21h.232zm-.134-1.665c.269 0 .367.156.367.599 0 .42-.123.587-.33.587h-.148v-1.186h.11zm2.302 3.03c.685 0 .894-.384.87-1.15 0-.084 0-.203-.013-.287l-.612-.024c.024.108.024.251.024.347 0 .407-.037.682-.294.682-.306 0-.343-.215-.343-1.293 0-1.137.05-1.364.319-1.364.22 0 .27.215.27.646 0 .06 0 .168-.013.263l.624-.023c.013-.06.025-.168.025-.276 0-.563-.098-1.053-.894-1.053-.784 0-1.004.49-1.004 1.82 0 1.292.245 1.711 1.04 1.711zm3.073-.06h.6V49.09h-.845c-.122.623-.232 1.33-.318 1.784-.037.18-.061.288-.098.563-.049-.275-.061-.371-.098-.575-.086-.443-.196-1.137-.306-1.772h-.857v3.425h.612v-1.557c0-.515 0-.622-.012-.958.024.336.061.575.122.958.086.527.27 1.557.27 1.557h.563s.184-1.03.27-1.557c.06-.395.073-.634.11-.958 0 .324-.013.443-.013.958v1.557zm2.192 0h.698l-.722-3.436h-.674l-.673 3.436h.636l.11-.635h.503l.122.635zm-.33-2c.06.431.122.898.134.886h-.343s.062-.467.11-.886c.025-.203.037-.407.05-.527 0 .12.024.324.049.527zm2.767 2h.282v-1.796h-.931v.49h.343v.228c0 .467-.074.694-.368.694-.257 0-.33-.131-.33-1.233 0-1.197.037-1.436.33-1.436.209 0 .258.227.258.622 0 .084 0 .144-.013.216l.625-.024c.012-.036.012-.144.012-.204 0-.658-.184-1.041-.87-1.041-.746 0-1.028.383-1.028 1.88 0 1.304.319 1.663.992 1.663.318 0 .44-.131.551-.323l.147.264zm.563-.767v.755h.723v-.755h-.723zm1.947.826c.698 0 .906-.383.894-1.149 0-.084-.012-.203-.024-.287l-.613-.024c.025.108.025.251.025.347 0 .407-.037.682-.294.682-.306 0-.343-.215-.343-1.293 0-1.137.05-1.364.319-1.364.22 0 .269.215.269.646 0 .06 0 .168-.012.263l.624-.023c0-.06.012-.168.012-.276 0-.563-.098-1.053-.893-1.053-.784 0-1.005.49-1.005 1.82 0 1.292.245 1.711 1.041 1.711zm2.119 0c.71 0 1.016-.347 1.028-1.771 0-1.39-.318-1.772-1.028-1.772s-1.017.37-1.017 1.772c0 1.448.306 1.771 1.017 1.771zm0-3.112c.306 0 .33.335.33 1.34 0 1.054-.024 1.33-.33 1.33-.294 0-.33-.288-.33-1.33 0-1.005.024-1.34.33-1.34zm3.183 3.053h.6V49.09h-.844c-.123.623-.233 1.33-.319 1.784-.037.18-.061.288-.098.563-.049-.275-.061-.371-.098-.575-.085-.443-.196-1.137-.306-1.772h-.857v3.425h.612v-1.557c0-.515 0-.622-.012-.958.024.336.061.575.122.958.086.527.27 1.557.27 1.557h.563s.184-1.03.27-1.557c.06-.395.073-.634.11-.958 0 .324-.013.443-.013.958v1.557zm14.918-13.77h3.917v-.975h-2.771v-1.677h2.123v-.975h-2.123v-1.633h2.63v-.975h-3.776v6.235zm5.108 0h2.15c1.945 0 3.215-1.159 3.215-3.126 0-1.967-1.27-3.109-3.216-3.109h-2.15v6.235zm1.146-.975v-4.285h.941c1.262 0 2.097.747 2.097 2.134 0 1.405-.818 2.151-2.097 2.151h-.941zm5.418.975h1.146V32.51H91.1v6.235zm4.051 0h1.146v-5.26h2.07v-.975H93.08v.975h2.07v5.26zm3.616-3.161c0 1.835 1.403 3.267 3.26 3.267 1.856 0 3.26-1.432 3.26-3.267 0-1.783-1.404-3.179-3.26-3.179-1.857 0-3.26 1.396-3.26 3.179zm1.181 0c0-1.23.924-2.143 2.079-2.143 1.154 0 2.078.914 2.078 2.143 0 1.282-.924 2.23-2.078 2.23-1.155 0-2.079-.948-2.079-2.23zm6.502 3.161h1.146v-2.327h1.102l1.252 2.327h1.28l-1.297-2.327a1.524 1.524 0 0 0-.214-.307v-.018c.667-.263 1.066-.957 1.066-1.703 0-.826-.4-1.423-1.03-1.704-.275-.123-.586-.176-1.27-.176h-2.035v6.235zm1.146-3.31v-1.95h.87c.898 0 1.156.369 1.156.966 0 .624-.382.984-.995.984h-1.03zm4.291-1.107h.8l.657-1.923h-1.04l-.417 1.923zm1.98 3.67s.774.853 2.177.853c1.315 0 2.079-.835 2.079-1.827 0-1.993-2.967-1.721-2.967-2.828 0-.439.417-.746.95-.746.791 0 1.395.544 1.395.544l.498-.922s-.64-.667-1.884-.667c-1.208 0-2.114.773-2.114 1.809 0 1.914 2.976 1.721 2.976 2.836 0 .51-.435.756-.915.756-.888 0-1.572-.659-1.572-.659l-.622.852zm-32.254 7.36c0 1.836 1.333 3.25 3.26 3.25 1.608 0 2.479-1.01 2.479-1.01l-.604-.817s-.738.79-1.83.79c-1.315 0-2.123-1.045-2.123-2.23 0-1.16.781-2.143 2.114-2.143 1.004 0 1.723.659 1.723.659l.55-.843s-.79-.852-2.327-.852c-1.856 0-3.242 1.388-3.242 3.197zm6.796 3.144h1.146v-2.617h2.887v2.617h1.146v-6.235H92.44v2.644h-2.887v-2.644h-1.146v6.235zm6.342-3.161c0 1.835 1.404 3.267 3.26 3.267 1.857 0 3.26-1.432 3.26-3.267 0-1.783-1.403-3.179-3.26-3.179-1.856 0-3.26 1.396-3.26 3.179zm1.182 0c0-1.23.924-2.143 2.078-2.143 1.155 0 2.08.914 2.08 2.143 0 1.282-.925 2.23-2.08 2.23-1.154 0-2.078-.948-2.078-2.23zm6.502 3.161h1.146v-6.235h-1.146v6.235zm2.31-3.143c0 1.835 1.332 3.249 3.26 3.249 1.608 0 2.478-1.01 2.478-1.01l-.604-.817s-.737.79-1.83.79c-1.314 0-2.123-1.045-2.123-2.23 0-1.16.782-2.143 2.115-2.143 1.003 0 1.723.659 1.723.659l.55-.843s-.79-.852-2.327-.852c-1.856 0-3.242 1.388-3.242 3.197zm6.796 3.143h3.917v-.975h-2.772V45.85h2.124v-.974h-2.124v-1.634h2.63v-.975h-3.775v6.235zM71.873 30.44a.506.506 0 0 0-.507.506v19.24c0 .28.227.507.507.507h.005c.28 0 .506-.227.506-.507v-19.24a.506.506 0 0 0-.506-.506h-.005z"/>
        </g>
    </g>
</svg>
