<svg xmlns="http://www.w3.org/2000/svg" width="40" height="40" viewBox="0 0 40 40">
    <g fill="none" fill-rule="nonzero">
        <path fill="#FFF" d="M19.937.014C8.957.014.055 8.924.055 19.914c0 10.99 8.902 19.898 19.882 19.898 10.98 0 19.882-8.909 19.882-19.899a19.907 19.907 0 0 0-5.823-14.07A19.874 19.874 0 0 0 19.937.014zm6.366 20.438l-9.625 5.561a.62.62 0 0 1-.932-.538V14.352a.622.622 0 0 1 .932-.539l9.625 5.562a.622.622 0 0 1 0 1.077z"/>
        <path fill="#181C20" d="M26.303 20.452l-9.625 5.561a.62.62 0 0 1-.932-.538V14.352a.622.622 0 0 1 .932-.539l9.625 5.562a.622.622 0 0 1 0 1.077z"/>
    </g>
</svg>
